<svg width="115" height="40" viewBox="0 0 115 40" fill="none" xmlns="http://www.w3.org/2000/svg">
<path d="M24.5645 25.1321C24.3058 25.043 24.0879 24.8633 23.9512 24.6262C23.8145 24.3891 23.768 24.1106 23.8204 23.8419C23.8637 23.6204 23.9784 23.4192 24.1469 23.2691C24.5915 22.8319 24.8969 22.2731 25.0249 21.663C25.1915 20.7843 25.0034 19.8755 24.5018 19.1351C24.0002 18.3948 23.2259 17.8831 22.3481 17.7119H22.3053C21.9519 17.6156 21.5932 17.5192 21.2345 17.4443C18.2056 16.7649 15.0462 16.9576 12.1223 17.9998C9.1983 19.042 6.6294 20.8913 4.71308 23.3333C4.2223 23.8916 3.85316 24.546 3.62918 25.2548C3.4052 25.9636 3.33128 26.7113 3.41214 27.4503C3.41214 27.4503 3.41214 27.4931 3.41214 27.5145C3.41214 27.5359 3.41214 27.643 3.41214 27.7073C3.41517 27.7429 3.41517 27.7787 3.41214 27.8143C3.41214 27.8465 3.41214 27.8839 3.41214 27.9161C3.76013 29.6132 4.57389 32.2793 9.62776 33.4946C14.6816 34.7099 22.316 33.9389 25.4854 28.9065C25.6506 28.6044 25.7989 28.2934 25.9297 27.9749C25.9639 27.8803 25.9925 27.7838 26.0154 27.6858C26.121 27.1569 26.0325 26.6075 25.766 26.1385C25.4995 25.6695 25.073 25.3122 24.5645 25.1321ZM19.8051 27.9642C19.4008 27.9642 19.0056 27.844 18.6697 27.6189C18.3338 27.3938 18.0724 27.074 17.9187 26.7C17.7649 26.3261 17.7258 25.9149 17.8063 25.5186C17.8867 25.1224 18.0831 24.759 18.3705 24.4746C18.6579 24.1902 19.0234 23.9976 19.4205 23.9214C19.8175 23.8451 20.2283 23.8885 20.6006 24.0462C20.973 24.2039 21.29 24.4687 21.5116 24.8069C21.7331 25.1451 21.8491 25.5416 21.8449 25.9459C21.8378 26.4827 21.62 26.9952 21.2384 27.3729C20.8568 27.7505 20.342 27.9629 19.8051 27.9642Z" fill="url(#paint0_linear_4_16036)"/>
<path d="M24.7408 13.1398L21.6624 14.2588L18.9053 6.6726C18.8112 6.41727 18.6198 6.20965 18.3729 6.09525C18.126 5.98084 17.8439 5.96899 17.5883 6.06228L1.57004 11.8871C1.31335 11.9812 1.10442 12.1732 0.989021 12.4211C0.873622 12.6689 0.861161 12.9524 0.954367 13.2094L3.71151 20.7903L0.6385 21.9092C0.518374 21.9528 0.408055 22.0197 0.313895 22.1061C0.219735 22.1925 0.143593 22.2966 0.0898522 22.4126C0.0361118 22.5285 0.00583481 22.6539 0.000763419 22.7816C-0.00430797 22.9093 0.0159265 23.0367 0.0603027 23.1566L0.959721 25.63C1.04788 25.8727 1.22878 26.0705 1.46267 26.1799C1.69656 26.2893 1.96432 26.3014 2.20713 26.2135L26.2987 17.4442C26.5414 17.356 26.7392 17.1752 26.8486 16.9413C26.958 16.7074 26.9701 16.4396 26.8822 16.1968L25.9828 13.718C25.8936 13.4776 25.7131 13.282 25.4806 13.1738C25.2481 13.0655 24.9822 13.0534 24.7408 13.1398Z" fill="url(#paint1_linear_4_16036)"/>
<path d="M3.49296 25.7476L23.7566 18.3649L3.49831 27.9159C3.34744 27.2012 3.34562 26.463 3.49296 25.7476Z" fill="#1712EB"/>
<path d="M45.1779 12.1107L47.2582 17.2991H50.8742L48.1515 10.5076C48.0839 10.3271 47.9626 10.1717 47.804 10.0623C47.6453 9.95293 47.457 9.89479 47.2643 9.89576H39.5489C39.3564 9.89566 39.1684 9.95413 39.0099 10.0634C38.8515 10.1727 38.73 10.3276 38.6617 10.5076L35.939 17.2991H39.555L41.6414 12.1107H45.1779Z" fill="black"/>
<path d="M54.9601 13.2852H51.6929V26.3114H54.9601V13.2852Z" fill="black"/>
<path d="M52.563 28.2823V29.3102C52.563 29.5617 52.6629 29.8029 52.8408 29.9808C53.0186 30.1586 53.2598 30.2585 53.5114 30.2585H58.8406C59.0921 30.2585 59.3333 30.1586 59.5111 29.9808C59.689 29.8029 59.7889 29.5617 59.7889 29.3102V9.85339H56.1607V28.2823H52.563Z" fill="black"/>
<path d="M37.2783 29.3099C37.2775 29.4346 37.3015 29.5583 37.3489 29.6737C37.3962 29.7892 37.4661 29.894 37.5543 29.9823C37.6425 30.0705 37.7474 30.1403 37.8628 30.1877C37.9783 30.2351 38.1019 30.259 38.2267 30.2582H48.879C49.1305 30.2582 49.3717 30.1583 49.5496 29.9805C49.7274 29.8026 49.8274 29.5614 49.8274 29.3099V28.2819H40.9066V20.1566H45.887V23.9745H43.2928V25.0086C43.2928 25.2601 43.3927 25.5013 43.5706 25.6792C43.7484 25.857 43.9897 25.9569 44.2412 25.9569H48.5669C48.8185 25.9569 49.0597 25.857 49.2375 25.6792C49.4154 25.5013 49.5153 25.2601 49.5153 25.0086V18.1803H39.2118L37.2783 18.2293V29.3099Z" fill="black"/>
<path d="M83.5096 21.0375C82.2546 21.0111 81.0022 20.911 79.759 20.7377C81.1887 20.2133 82.5426 19.5015 83.7849 18.6207C84.0412 18.4367 84.2499 18.1941 84.3936 17.9131C84.5372 17.6322 84.6117 17.321 84.6109 17.0054V15.8858H70.5017C70.6249 15.6271 70.7332 15.3615 70.826 15.0904H68.1767C67.8493 15.6626 67.3788 16.1399 66.8114 16.4756C66.244 16.8114 65.5992 16.9939 64.94 17.0054V19.3488C65.6666 19.3561 66.3884 19.2296 67.0692 18.9756C68.1897 19.664 69.3691 20.2517 70.5935 20.7316C69.3403 20.9094 68.0777 21.0116 66.8123 21.0375H63.2207V22.0654C63.2271 22.3224 63.335 22.5664 63.5207 22.7441C63.7064 22.9218 63.9549 23.0187 64.2119 23.0138H66.7817C69.5976 22.9929 72.4042 22.6854 75.1579 22.096C77.8995 22.7085 80.7004 23.0163 83.5096 23.0138H86.0855C86.2124 23.0162 86.3386 22.9936 86.4569 22.9473C86.5751 22.9009 86.683 22.8318 86.7745 22.7437C86.866 22.6556 86.9392 22.5504 86.99 22.434C87.0408 22.3176 87.0682 22.1924 87.0706 22.0654V21.0375H83.5096ZM69.021 17.8682H81.2947L80.7746 18.1068C78.9672 18.9016 77.0858 19.5164 75.1579 19.9423C75.1579 19.9423 71.1747 19.0001 69.021 17.8682Z" fill="black"/>
<path d="M67.7549 12.723H82.5616V15.1092H86.3428V11.7134C86.3364 11.4581 86.2292 11.2157 86.0446 11.0391C85.86 10.8626 85.6131 10.7662 85.3577 10.7712H77.0488V9.85339H73.2676V10.7712H64.9587C64.7033 10.7662 64.4564 10.8626 64.2718 11.0391C64.0873 11.2157 63.9801 11.4581 63.9736 11.7134V15.1092H67.7549V12.723Z" fill="black"/>
<path d="M84.1643 23.8032H66.0047C65.8759 23.7983 65.7474 23.819 65.6267 23.8642C65.506 23.9093 65.3955 23.978 65.3016 24.0662C65.2077 24.1545 65.1322 24.2605 65.0796 24.3781C65.027 24.4958 64.9983 24.6227 64.9951 24.7515V29.3098C65.0015 29.5668 65.1094 29.8107 65.2951 29.9884C65.4808 30.1661 65.7293 30.2631 65.9863 30.2582H84.146C84.2729 30.2606 84.3991 30.238 84.5173 30.1917C84.6356 30.1453 84.7435 30.0761 84.835 29.9881C84.9265 29.9 84.9997 29.7948 85.0505 29.6784C85.1013 29.562 85.1287 29.4368 85.1311 29.3098V24.7515C85.1262 24.4983 85.0223 24.2571 84.8415 24.0798C84.6607 23.9024 84.4176 23.8031 84.1643 23.8032ZM81.3682 28.2819H68.7947V25.7794H81.3682V28.2819Z" fill="black"/>
<path d="M93.715 12.8022H98.9218V25.1554H101.834V11.8294C101.841 11.5707 101.745 11.32 101.567 11.132C101.389 10.944 101.144 10.8339 100.886 10.8259H91.7509C91.4923 10.8339 91.2474 10.944 91.0697 11.132C90.892 11.32 90.796 11.5707 90.8026 11.8294V25.1554H93.715V12.8022Z" fill="black"/>
<path d="M109.409 13.2859V9.85339H106.497V18.4193H104.153C104.02 18.4191 103.888 18.4461 103.766 18.4987C103.643 18.5513 103.533 18.6284 103.441 18.7252C103.349 18.822 103.278 18.9365 103.233 19.0617C103.187 19.1869 103.167 19.3202 103.174 19.4533V29.2429C103.169 29.3745 103.191 29.5057 103.238 29.6288C103.285 29.7518 103.356 29.8641 103.448 29.959C103.539 30.0538 103.649 30.1292 103.77 30.1807C103.891 30.2322 104.022 30.2586 104.153 30.2585H113.331C113.584 30.2397 113.82 30.1233 113.989 29.9338C114.158 29.7443 114.247 29.4965 114.237 29.2429V19.4533C114.243 19.1947 114.147 18.9439 113.969 18.7559C113.792 18.5679 113.547 18.4579 113.288 18.4499H109.409V15.2621H113.863C114.122 15.2541 114.367 15.1441 114.545 14.9561C114.722 14.7681 114.818 14.5173 114.812 14.2587V13.2859H109.409ZM111.324 28.2823H106.087V20.3955H111.324V28.2823Z" fill="black"/>
<path d="M100.378 26.477C100 26.4561 99.625 26.5491 99.3007 26.7438C98.9765 26.9385 98.718 27.226 98.5589 27.5691C98.3997 27.9122 98.3471 28.2952 98.4079 28.6685C98.4686 29.0418 98.64 29.3883 98.8998 29.6632C99.1596 29.9381 99.4958 30.1288 99.8651 30.2106C100.234 30.2924 100.62 30.2615 100.971 30.122C101.323 29.9825 101.625 29.7407 101.837 29.4279C102.05 29.1152 102.164 28.7458 102.165 28.3676C102.172 28.126 102.131 27.8853 102.046 27.6594C101.96 27.4335 101.83 27.2268 101.664 27.0512C101.498 26.8755 101.299 26.7343 101.078 26.6358C100.858 26.5373 100.62 26.4833 100.378 26.477Z" fill="black"/>
<path d="M98.7203 18.8411H98.6714V18.89H98.7203V18.8411Z" fill="#479344"/>
<path d="M94.8773 14.3806V24.2314C94.885 24.687 94.7974 25.1392 94.6203 25.5591C94.3246 26.2275 93.7993 26.7679 93.1396 27.0826H93.0968C92.7012 27.2714 92.2686 27.3696 91.8303 27.3702H90.5393V28.9793C90.5226 29.2998 90.6324 29.614 90.8452 29.8543C91.041 30.061 91.3028 30.193 91.5855 30.2275H91.8731C93.4493 30.2275 94.9611 29.6018 96.0762 28.4878C97.1913 27.3738 97.8186 25.8627 97.8203 24.2864V14.3806H94.8773Z" fill="black"/>
<defs>
<linearGradient id="paint0_linear_4_16036" x1="7.2882" y1="28.8208" x2="24.4789" y2="22.3536" gradientUnits="userSpaceOnUse">
<stop stop-color="#173DF3"/>
<stop offset="0.26" stop-color="#1A42F3"/>
<stop offset="0.57" stop-color="#2251F3"/>
<stop offset="0.91" stop-color="#2F69F4"/>
<stop offset="1" stop-color="#3371F4"/>
</linearGradient>
<linearGradient id="paint1_linear_4_16036" x1="3.50272" y1="18.5096" x2="20.8647" y2="12.1173" gradientUnits="userSpaceOnUse">
<stop stop-color="#173DF3"/>
<stop offset="0.38" stop-color="#204EF3"/>
<stop offset="1" stop-color="#3371F4"/>
</linearGradient>
</defs>
</svg>
